<?xml version="1.0" standalone="no"?>
<!DOCTYPE svg PUBLIC "-//W3C//DTD SVG 20010904//EN"
 "http://www.w3.org/TR/2001/REC-SVG-20010904/DTD/svg10.dtd">
<svg version="1.0" xmlns="http://www.w3.org/2000/svg"
 width="1512.000000pt" height="1561.000000pt" viewBox="0 0 1512.000000 1561.000000"
 preserveAspectRatio="xMidYMid meet">
<metadata>
Created by potrace 1.16, written by Peter Selinger 2001-2019
</metadata>
<g transform="translate(0.000000,1561.000000) scale(0.100000,-0.100000)"
fill="#000000" stroke="none">
<path d="M6100 14894 c-241 -34 -497 -112 -637 -196 -73 -43 -173 -136 -211
-196 -123 -192 -91 -466 90 -787 63 -111 183 -291 209 -313 19 -16 19 -25 13
-142 -13 -254 34 -397 151 -451 51 -24 61 -24 68 1 3 11 17 22 33 26 16 3 36
15 44 26 13 16 20 17 44 8 15 -5 31 -8 36 -5 5 3 20 1 34 -5 20 -7 26 -16 26
-40 0 -18 4 -29 10 -25 6 4 10 -14 10 -47 0 -62 12 -90 27 -63 9 16 15 15 69
-11 46 -22 71 -27 113 -26 30 1 57 4 59 7 3 2 -10 21 -27 41 -29 33 -51 73
-51 93 0 4 29 13 65 20 72 15 92 33 76 73 -5 13 -13 40 -16 61 -8 48 -38 62
-97 46 -47 -12 -52 -10 -39 22 10 26 25 78 25 94 1 12 -65 7 -78 -5 -5 -5 -15
-6 -22 -3 -8 3 -20 1 -27 -5 -6 -5 -31 -12 -54 -16 -125 -19 71 89 216 119 23
5 51 1 86 -11 51 -17 53 -17 86 2 33 20 34 21 43 112 9 101 12 91 -58 187 -9
11 -22 48 -31 82 -13 51 -14 76 -5 150 24 194 82 358 147 415 46 40 166 99
248 123 102 29 195 62 210 75 6 5 134 13 285 19 386 13 449 31 582 163 35 35
79 72 98 82 l35 19 -44 19 c-31 15 -65 20 -125 20 -104 -1 -213 -19 -220 -38
-6 -16 -33 -19 -38 -4 -2 5 -33 -2 -71 -15 -38 -14 -73 -23 -78 -20 -9 6 -84
-13 -295 -76 -71 -21 -134 -39 -140 -39 -5 0 -19 27 -32 59 -71 182 -217 312
-409 362 -104 27 -293 33 -433 13z"/>
<path d="M8134 14270 c-62 -13 -139 -55 -171 -95 -21 -26 -36 -35 -58 -35 -47
0 -75 -24 -66 -57 10 -39 66 -44 116 -10 38 26 111 91 116 104 2 4 22 20 45
35 35 23 50 26 105 24 36 -2 74 -8 85 -14 12 -6 26 -7 34 -2 12 7 11 10 -5 16
-11 4 -42 15 -68 26 -51 19 -69 20 -133 8z"/>
<path d="M7405 14021 c-22 -4 -51 -14 -65 -21 -18 -11 -77 -16 -220 -20 l-195
-6 -135 -51 c-74 -29 -152 -55 -174 -58 -28 -5 -36 -9 -28 -17 17 -17 95 -12
212 13 116 25 236 28 380 8 84 -11 158 -9 234 8 l40 8 -3 63 c-1 39 2 62 8 62
6 0 11 5 11 10 0 11 -5 11 -65 1z"/>
<path d="M7190 13747 c-41 -23 -93 -55 -115 -70 -32 -22 -51 -27 -97 -27 -59
0 -77 -12 -35 -24 22 -6 22 -7 3 -21 -11 -8 -39 -15 -62 -15 -24 0 -46 -4 -49
-10 -8 -13 33 -22 116 -24 70 -1 72 -1 104 36 48 56 214 122 339 136 33 4 61
12 60 17 -2 21 -70 45 -129 45 -53 0 -70 -5 -135 -43z"/>
<path d="M6186 12523 c-3 -4 9 -23 29 -43 31 -32 34 -38 21 -55 -10 -14 -32
-21 -82 -26 -57 -6 -72 -11 -91 -33 -13 -15 -23 -38 -23 -50 0 -31 -17 -44
-65 -50 -22 -2 -42 -5 -45 -6 -3 -2 -8 -2 -11 -2 -3 1 -21 -15 -40 -34 l-33
-34 33 6 c23 5 32 4 28 -3 -4 -6 -23 -14 -42 -17 -93 -18 -100 -181 -13 -268
29 -29 44 -37 59 -33 11 4 62 8 114 9 107 2 124 12 156 81 33 71 16 205 -26
205 -26 0 -109 -22 -119 -31 -23 -21 -25 -15 -27 79 -1 31 1 32 60 35 48 2 51
4 51 28 0 39 38 69 91 69 24 1 60 10 79 20 19 11 50 26 68 35 31 15 33 19 31
61 -3 54 -18 64 -55 35 -37 -29 -81 -27 -106 4 -20 26 -30 30 -42 18z"/>
<path d="M6480 12385 c-7 -9 -28 -22 -45 -29 -48 -21 -52 -58 -11 -121 18 -27
36 -59 40 -70 15 -38 36 -150 36 -191 0 -37 -5 -44 -57 -87 -32 -26 -67 -47
-79 -47 -11 0 -35 -15 -52 -33 -31 -32 -34 -33 -85 -26 -28 4 -103 8 -165 8
-74 1 -136 7 -179 18 -62 17 -65 17 -78 0 -6 -9 -16 -17 -21 -17 -5 0 -19 -12
-31 -27 -117 -146 -147 -203 -158 -305 -7 -66 -24 -86 -115 -141 -92 -55 -254
-130 -305 -143 -17 -4 -34 -9 -40 -13 -5 -3 -19 -7 -31 -8 -11 -2 -52 -19 -90
-38 -38 -19 -75 -35 -81 -35 -7 0 -13 -4 -13 -10 0 -5 -8 -10 -17 -10 -10 -1
-36 -9 -58 -20 -22 -11 -47 -19 -56 -20 -9 0 -19 -3 -23 -7 -4 -5 -11 -8 -14
-9 -13 -1 -47 -15 -75 -30 -16 -7 -35 -14 -42 -14 -7 0 -15 -3 -17 -7 -1 -5
-37 -25 -78 -45 -41 -21 -106 -55 -145 -76 -38 -21 -110 -60 -160 -87 -147
-79 -405 -229 -552 -322 -226 -141 -655 -435 -661 -453 -2 -6 -10 -10 -17 -10
-7 0 -15 -7 -19 -15 -3 -8 -12 -15 -21 -15 -8 0 -15 -4 -15 -8 0 -5 -19 -22
-42 -39 -24 -17 -53 -39 -65 -49 -12 -11 -37 -30 -54 -44 -18 -14 -43 -34 -55
-45 -13 -11 -47 -40 -76 -65 -158 -134 -586 -579 -606 -630 -3 -8 -25 -40 -49
-72 -24 -31 -43 -58 -43 -61 0 -3 9 -7 21 -10 20 -5 20 -6 -5 -56 -14 -28 -26
-54 -26 -59 0 -9 -27 -58 -71 -130 -9 -15 -14 -30 -12 -34 2 -5 0 -8 -6 -8 -5
0 -12 -13 -16 -30 -4 -16 -10 -30 -15 -30 -8 0 -23 -38 -21 -52 1 -5 -4 -8 -9
-8 -6 0 -16 -12 -23 -27 -6 -16 -17 -34 -24 -41 -11 -12 -16 -33 -12 -59 0 -3
-6 -10 -15 -15 -9 -5 -16 -21 -15 -36 0 -15 -6 -63 -15 -107 -13 -69 -46 -265
-60 -360 -3 -16 -9 -55 -15 -85 -6 -30 -12 -75 -14 -100 -2 -25 -9 -56 -14
-70 -6 -14 -14 -50 -18 -80 -9 -70 -11 -77 -24 -125 -5 -22 -13 -56 -15 -75
-15 -100 -25 -182 -24 -188 1 -4 -1 -14 -5 -22 -3 -8 -13 -58 -22 -110 -9 -52
-23 -124 -31 -160 -8 -36 -19 -90 -25 -120 -5 -30 -13 -62 -16 -70 -3 -8 -7
-18 -8 -22 -2 -5 -3 -9 -4 -10 -2 -2 -5 -14 -7 -28 -9 -48 -11 -55 -28 -92 -9
-21 -16 -48 -16 -61 0 -13 -5 -28 -11 -34 -6 -6 -12 -17 -13 -24 -7 -36 -19
-75 -26 -84 -5 -5 -13 -26 -18 -45 -10 -33 -76 -218 -109 -305 -8 -22 -25 -89
-38 -150 -44 -203 -149 -575 -196 -690 -5 -11 -15 -47 -24 -80 -9 -33 -25 -91
-36 -130 -19 -65 -58 -213 -92 -345 -29 -115 -37 -170 -42 -330 -4 -91 -11
-187 -18 -215 -6 -27 -10 -54 -9 -59 2 -5 7 -113 12 -242 9 -229 10 -234 38
-291 16 -32 44 -98 62 -148 42 -116 69 -177 83 -190 15 -13 48 -62 66 -98 8
-15 18 -27 23 -27 4 0 8 -6 8 -13 0 -24 108 -159 218 -272 107 -111 202 -227
202 -247 0 -12 36 -62 74 -103 12 -13 46 -62 75 -110 33 -55 67 -97 94 -116
23 -16 49 -35 58 -42 8 -7 24 -17 35 -23 10 -6 34 -31 52 -55 18 -24 39 -51
45 -59 70 -89 81 -110 63 -110 -9 0 -16 6 -16 14 0 8 -6 13 -12 12 -7 0 -13 1
-14 4 -3 19 -27 50 -39 50 -8 0 -15 7 -15 15 0 8 -7 15 -15 15 -8 0 -15 7 -15
15 0 8 -6 15 -12 16 -11 1 -258 255 -365 374 -15 17 -30 30 -35 30 -4 0 -7 3
-5 6 1 3 -4 14 -12 23 -11 13 -16 14 -24 4 -6 -10 -7 -9 -4 4 4 10 -5 28 -20
45 -15 15 -27 30 -27 33 -1 3 -5 6 -11 6 -5 1 -14 2 -20 3 -5 1 -3 6 5 11 8 5
10 10 4 10 -7 0 -14 9 -17 20 -4 14 -10 18 -22 14 -12 -5 -16 -2 -13 11 2 10
-3 20 -11 23 -10 3 -12 0 -8 -12 4 -9 2 -16 -2 -16 -5 0 -11 7 -15 15 -3 8
-12 15 -21 15 -8 0 -15 9 -15 20 0 11 5 20 11 20 6 0 9 -7 5 -15 -4 -11 1 -15
19 -15 24 0 25 0 6 19 -10 10 -31 23 -47 29 -20 7 -23 11 -10 11 12 1 16 6 12
17 -3 9 -6 18 -6 20 0 2 -9 4 -19 4 -12 0 -18 7 -17 18 1 11 -5 16 -16 14 -21
-3 -24 14 -5 22 6 3 -1 4 -18 3 -31 -2 -32 -2 -34 61 0 17 -6 32 -12 32 -6 0
-9 -7 -5 -15 3 -9 0 -15 -9 -15 -9 0 -12 6 -9 15 4 10 0 15 -15 15 -16 0 -21
6 -20 28 0 26 1 26 9 5 5 -13 14 -23 20 -23 16 0 12 18 -10 40 -11 11 -20 23
-20 28 0 4 -15 30 -33 57 -56 83 -184 310 -197 349 -6 20 -15 36 -19 36 -4 0
-13 27 -19 60 -9 41 -17 58 -26 54 -9 -4 -12 7 -11 42 3 61 -4 87 -21 80 -8
-3 -14 -1 -14 4 0 6 7 10 15 10 12 0 13 12 9 68 -8 92 -8 93 -45 85 -29 -5
-31 -4 -24 17 6 19 4 21 -13 16 -26 -9 -87 51 -71 70 16 19 60 -6 53 -30 -4
-13 -2 -17 7 -14 19 6 24 45 9 64 -7 7 -27 14 -44 14 -19 1 -44 12 -66 30 -25
22 -30 30 -17 30 14 0 16 4 9 17 -7 11 -6 23 1 35 10 15 6 23 -26 49 -29 24
-35 34 -27 44 19 23 1 63 -33 75 l-32 11 28 22 c15 13 27 29 27 37 -1 10 -7 8
-20 -8 l-19 -23 -68 46 c-70 46 -84 45 -63 -4 9 -23 9 -33 -2 -50 -12 -19 -10
-24 11 -40 22 -17 23 -22 15 -66 -12 -66 -30 -75 -83 -39 -42 27 -44 28 -57 9
-8 -10 -14 -27 -14 -37 0 -10 -4 -18 -10 -18 -5 0 -10 -5 -10 -11 0 -7 7 -8
18 -4 9 4 28 10 41 13 22 4 23 3 16 -29 -4 -19 -10 -37 -14 -41 -3 -4 -29 4
-56 17 -28 13 -53 25 -57 25 -4 0 -8 -893 -8 -1985 l0 -1985 3927 1 c2413 0
3955 4 3998 9 39 6 90 10 115 10 78 -1 345 30 348 40 2 6 10 10 18 10 8 0 14
3 14 8 0 4 14 16 30 27 18 12 30 29 30 43 0 12 4 22 9 22 15 0 61 -68 55 -83
-4 -11 1 -13 19 -10 23 5 24 8 16 36 -8 29 0 46 23 47 4 0 9 9 13 19 7 24 95
76 95 57 0 -7 -9 -21 -20 -31 -11 -10 -20 -27 -20 -37 0 -15 -5 -18 -19 -13
-24 7 -31 -4 -20 -32 9 -24 15 -25 144 -7 40 5 54 3 64 -10 12 -14 16 -13 43
9 16 14 40 25 52 25 13 0 34 9 47 21 16 14 32 19 49 15 50 -10 466 99 690 182
50 19 55 23 52 48 -3 22 0 25 15 19 72 -29 118 -19 118 25 0 17 8 27 26 34 34
12 83 0 76 -19 -5 -11 -2 -11 21 0 15 8 54 24 87 36 184 67 348 139 360 159 3
5 15 10 25 10 10 0 58 20 107 44 48 24 144 71 213 104 127 62 255 131 300 162
14 9 32 19 41 23 28 10 199 118 199 125 0 4 -10 12 -22 17 -33 15 -36 37 -4
29 21 -5 26 -3 26 14 0 11 -7 25 -16 33 -14 12 -14 14 2 26 17 12 17 16 -2 70
-17 46 -26 59 -50 66 -16 6 -32 15 -36 21 -4 6 -24 11 -44 11 -37 0 -38 1 -49
52 -7 28 -19 63 -28 77 -20 30 -20 36 -7 72 13 34 32 20 34 -27 1 -30 6 -34
39 -42 33 -8 37 -12 37 -41 0 -18 6 -39 13 -48 15 -19 72 -39 91 -32 9 3 23
-10 37 -35 19 -35 27 -41 56 -41 32 0 43 -12 23 -25 -10 -6 -3 -64 10 -78 4
-4 34 6 67 23 56 29 61 34 67 73 4 23 7 51 7 62 0 10 4 24 8 30 5 5 11 35 13
67 l4 56 -35 -5 c-20 -3 -51 -12 -70 -20 -40 -18 -59 -6 -42 25 14 27 14 32
-4 32 -8 0 -15 -4 -15 -10 0 -5 -7 -10 -16 -10 -12 0 -15 6 -10 25 5 20 3 25
-12 25 -30 0 -34 12 -10 37 27 29 18 38 -38 36 -32 -1 -44 2 -44 13 0 18 -16
18 -23 0 -4 -9 -15 -12 -32 -8 -21 4 -32 16 -48 54 -17 40 -24 49 -40 44 -11
-3 -29 0 -40 5 -13 8 -27 7 -48 -1 -25 -11 -32 -10 -48 4 -25 23 -28 21 -35
-23 -8 -50 -69 -113 -102 -105 -25 6 -41 -13 -25 -29 8 -8 14 -8 23 1 14 14
48 16 48 4 0 -19 -39 -44 -58 -38 -11 4 -39 -1 -61 -10 -40 -16 -42 -18 -35
-48 3 -17 14 -47 24 -66 29 -59 32 -96 9 -122 -15 -17 -22 -19 -26 -10 -9 23
-35 -40 -29 -71 5 -22 1 -29 -17 -36 -13 -5 -29 -16 -36 -25 -16 -19 -70 -21
-94 -4 -22 17 -12 58 15 58 31 0 66 29 78 65 11 32 9 35 -36 78 -34 32 -45 49
-41 62 5 10 13 15 23 11 28 -11 38 6 14 24 l-23 18 23 12 c33 18 59 51 60 75
0 13 13 28 36 40 45 24 66 55 62 92 -3 26 -5 28 -45 25 -37 -3 -43 -1 -43 17
0 11 7 26 15 35 8 8 15 17 15 20 0 13 -19 5 -42 -19 l-24 -24 -35 23 c-37 25
-54 24 -69 -4 -14 -26 26 -110 52 -110 22 0 24 -26 3 -34 -8 -3 -20 -17 -27
-31 -13 -28 -33 -33 -42 -9 -9 22 -8 23 14 17 14 -4 20 0 20 10 0 16 -34 18
-56 4 -10 -6 -62 4 -95 17 -9 4 -21 0 -29 -9 -7 -8 -21 -15 -31 -15 -13 0 -19
-7 -19 -24 0 -46 9 -56 38 -43 15 6 36 19 47 29 26 22 63 14 67 -16 2 -15 11
-22 31 -24 26 -3 28 -6 27 -50 -1 -26 0 -56 2 -67 2 -15 -4 -21 -22 -23 -14
-2 -30 -8 -37 -14 -15 -12 -53 7 -53 26 0 20 30 28 47 14 12 -10 18 -9 29 6
11 16 11 23 -1 47 -14 27 -18 28 -65 22 -36 -4 -56 -1 -74 11 -19 12 -31 13
-51 6 -21 -8 -25 -7 -25 8 -1 16 -1 16 -14 -1 -14 -19 -51 -23 -61 -7 -10 15
-52 12 -59 -5 -3 -8 -16 -15 -29 -15 -27 0 -62 33 -53 49 4 5 -4 17 -16 25
-20 14 -21 18 -8 56 15 44 23 45 22 2 0 -22 7 -32 34 -47 20 -11 33 -24 30
-31 -6 -16 10 -28 24 -19 6 4 7 13 1 23 -13 25 4 61 34 72 19 7 25 16 23 32
-2 16 4 26 20 33 13 6 22 18 22 32 0 25 -10 29 -27 12 -8 -8 -17 -8 -31 0 -28
15 -39 -4 -17 -29 31 -34 -10 -56 -46 -24 -14 12 -22 13 -39 4 -28 -15 -34 -8
-25 27 5 15 7 34 6 42 -2 10 4 12 23 7 19 -5 31 1 55 25 31 30 33 49 6 49 -7
0 -15 -5 -17 -11 -2 -7 -15 -4 -35 7 -30 18 -32 18 -52 0 -12 -11 -21 -27 -21
-38 0 -19 -15 -24 -25 -8 -4 6 -29 22 -56 36 -28 13 -52 31 -56 39 -3 8 -10
15 -17 15 -14 0 -62 -89 -58 -108 2 -9 -3 -12 -15 -8 -13 4 -28 -3 -45 -21
-24 -25 -26 -35 -24 -95 3 -53 0 -68 -13 -72 -9 -3 -21 -8 -27 -11 -6 -3 -19
6 -28 20 -15 23 -15 29 -2 55 11 23 12 31 1 40 -9 7 -16 6 -24 -4 -8 -10 -24
-12 -51 -9 -25 4 -46 1 -55 -7 -9 -7 -17 -11 -18 -9 -1 2 -13 19 -25 37 -30
43 -23 62 23 62 37 0 44 10 20 30 -8 7 -15 19 -15 27 0 15 -12 15 -67 -2 -17
-6 -23 -3 -23 8 0 18 -34 32 -66 28 -14 -1 -23 5 -26 17 -3 11 -21 27 -40 36
-34 16 -37 16 -71 -4 l-36 -22 -50 27 c-53 29 -78 27 -61 -5 5 -10 10 -28 10
-39 0 -26 -37 -29 -55 -4 -7 9 -17 13 -23 9 -11 -6 -9 -20 8 -61 5 -11 11 -40
13 -64 6 -52 15 -62 45 -55 19 6 22 13 21 53 -1 71 1 81 16 81 13 0 34 -27 61
-75 6 -11 24 -21 40 -23 21 -2 33 -11 42 -31 13 -30 5 -56 -37 -126 -23 -39
-51 -45 -51 -12 0 38 10 57 31 57 10 0 19 5 19 10 0 17 -31 24 -40 10 -4 -7
-13 -10 -18 -6 -6 4 -16 -3 -22 -14 -8 -14 -21 -20 -45 -20 -32 0 -35 3 -35
29 0 20 -10 38 -34 59 -49 43 -76 49 -97 23 -18 -22 -44 -27 -69 -11 -12 7 -8
12 18 21 26 9 32 16 32 39 0 15 -7 33 -16 41 -13 11 -21 10 -50 -6 -33 -18
-35 -18 -69 1 -19 10 -35 24 -35 31 0 7 -7 13 -15 13 -8 0 -24 5 -34 12 -17
10 -23 8 -40 -13 -13 -16 -18 -32 -14 -49 9 -40 12 -41 59 -34 73 11 50 -13
-53 -53 -6 -3 -23 14 -38 37 -14 22 -30 38 -35 35 -16 -10 -12 -74 6 -104 16
-26 15 -29 -9 -55 -16 -17 -23 -34 -20 -46 7 -28 -7 -25 -33 7 -29 37 -54 26
-54 -25 0 -23 -6 -45 -15 -52 -13 -10 -15 -9 -15 9 0 12 -16 44 -35 73 -26 37
-32 54 -25 63 6 7 9 18 8 25 -5 22 19 22 25 0 3 -11 10 -20 16 -20 14 0 14 17
1 25 -6 4 -4 15 6 30 23 36 15 69 -19 73 -21 3 -46 -11 -112 -63 -165 -128
-299 -210 -430 -262 -53 -21 -90 -39 -81 -41 18 -4 22 -32 5 -32 -7 0 -17 7
-23 15 -9 13 -27 4 -116 -61 -177 -129 -341 -235 -426 -275 -240 -114 -622
-147 -1349 -119 -457 18 -1087 50 -1190 60 -153 15 -375 89 -645 216 -197 91
-207 106 -78 108 l74 1 59 -60 c115 -116 250 -161 531 -174 89 -5 165 -11 171
-14 5 -3 45 -8 89 -11 43 -3 111 -10 149 -16 106 -15 1227 -43 1405 -36 356
15 371 17 450 46 100 38 254 110 314 148 27 18 107 54 178 82 103 40 155 67
254 136 69 48 150 107 179 133 29 25 88 66 131 90 44 24 102 60 129 81 28 20
77 54 110 74 33 21 78 56 101 77 22 22 86 75 142 117 279 213 349 269 410 326
37 34 81 75 97 90 17 15 64 53 105 84 41 31 130 111 197 179 67 68 126 123
131 123 13 0 263 247 303 300 19 25 82 92 140 150 126 124 151 157 178 231 12
31 33 67 47 80 55 51 289 325 348 408 34 48 37 56 23 66 -9 7 -14 20 -11 31 3
13 -3 24 -22 35 l-26 16 36 40 c41 46 43 53 17 53 -11 0 -22 4 -25 8 -3 5 9 7
27 5 24 -2 20 1 -15 11 -26 8 -54 21 -63 30 -27 27 -121 14 -119 -17 3 -30
-37 -19 -75 21 -34 36 -38 38 -61 25 -14 -7 -21 -13 -16 -13 5 0 3 -7 -4 -14
-6 -8 -33 -16 -58 -18 -30 -2 -46 -7 -45 -15 3 -14 -29 -14 -76 -1 -22 7 -40
7 -55 0 -11 -6 -41 -13 -66 -16 -24 -2 -46 -9 -48 -15 -2 -6 -12 -7 -26 -1
-13 4 -29 4 -39 -2 -9 -5 -22 -6 -27 -3 -5 3 -24 0 -42 -8 -18 -8 -64 -25
-103 -38 -72 -23 -340 -149 -385 -180 -14 -9 -43 -20 -64 -24 -21 -4 -40 -13
-43 -20 -2 -7 -16 -16 -31 -20 -15 -4 -35 -14 -44 -22 -10 -8 -37 -19 -62 -24
-44 -8 -131 -54 -173 -92 -12 -10 -26 -16 -32 -13 -14 9 -61 -17 -88 -48 -13
-14 -33 -26 -45 -26 -13 0 -34 -9 -48 -20 -14 -11 -30 -20 -36 -20 -6 0 -22
-8 -35 -19 -13 -10 -35 -21 -49 -25 -56 -16 -398 -185 -445 -220 -16 -13 -43
-26 -59 -30 -31 -8 -157 -77 -250 -138 -32 -21 -64 -38 -72 -38 -7 0 -17 -6
-21 -12 -8 -13 -46 -37 -93 -59 -113 -54 -152 -75 -162 -86 -6 -7 -19 -13 -29
-13 -10 0 -22 -7 -27 -16 -5 -9 -37 -22 -71 -30 -33 -8 -77 -23 -96 -34 -20
-11 -42 -20 -49 -20 -7 0 -21 -9 -30 -19 -10 -11 -31 -23 -47 -26 -16 -4 -29
-10 -29 -14 0 -4 -12 -13 -27 -20 -23 -10 -29 -10 -38 2 -9 13 -14 13 -40 0
-17 -9 -37 -21 -45 -28 -22 -18 -126 -53 -185 -61 -27 -4 -65 -15 -83 -26 -18
-10 -38 -16 -43 -12 -6 3 -19 -2 -31 -12 -16 -15 -34 -18 -86 -17 -40 1 -76
-4 -93 -12 -15 -8 -50 -14 -78 -14 -28 1 -56 -3 -63 -9 -8 -6 -54 -8 -123 -5
-60 3 -121 5 -135 5 -47 -2 -125 -9 -130 -12 -24 -14 -181 -11 -213 4 -13 6
-24 4 -34 -7 -12 -12 -21 -13 -39 -5 -18 8 -34 6 -77 -12 -51 -21 -59 -22
-102 -10 -26 7 -49 19 -52 27 -3 8 -13 11 -23 8 -9 -3 -33 2 -54 10 -28 12
-38 23 -43 46 -7 34 -35 53 -67 45 -27 -7 -39 3 -90 67 -27 34 -44 47 -57 44
-12 -3 -19 2 -23 18 -3 13 -21 28 -43 38 -62 28 -101 60 -107 90 -4 21 -13 29
-37 34 -17 3 -33 12 -36 19 -3 8 -15 14 -27 14 -12 0 -37 16 -56 35 -19 19
-38 35 -44 35 -5 0 -16 7 -25 15 -55 50 -96 78 -124 84 -21 4 -36 16 -44 33
-13 26 -78 81 -100 84 -14 2 -67 60 -85 94 -14 26 -44 60 -54 60 -9 0 -84 81
-84 91 0 5 -7 9 -15 9 -8 0 -15 9 -15 19 0 11 -3 21 -8 23 -4 1 -24 31 -44 66
-40 67 -39 60 -23 222 2 19 5 49 5 65 1 17 21 71 45 120 24 50 46 103 50 118
3 16 26 47 52 70 25 23 54 58 64 79 19 37 50 53 114 60 28 3 32 -1 61 -61 36
-74 77 -115 131 -131 21 -6 111 -14 201 -17 166 -6 184 -4 264 38 10 5 25 9
33 9 8 0 23 4 33 10 9 5 89 26 177 46 88 20 171 41 185 48 39 18 37 44 -5 83
l-37 34 32 30 c17 17 29 33 26 36 -3 3 4 23 15 45 11 21 17 42 15 47 -3 4 1
16 8 27 8 10 12 23 9 30 -2 6 3 40 12 74 16 62 16 63 -6 86 -18 20 -20 26 -9
39 10 13 10 18 -2 33 -27 30 -78 134 -78 158 0 12 -7 29 -15 38 -8 8 -15 22
-15 30 0 9 -4 16 -10 16 -5 0 -10 7 -10 16 0 21 -65 158 -88 186 -9 11 -25 29
-34 40 -10 12 -18 28 -18 36 0 9 -6 23 -13 31 -8 9 -24 45 -37 81 -13 36 -29
72 -37 81 -7 8 -13 20 -13 26 0 6 -8 21 -19 34 -10 13 -18 27 -17 31 0 5 -11
21 -26 37 -16 16 -28 38 -28 49 0 11 -7 25 -15 32 -8 7 -15 18 -15 24 0 6 -9
22 -19 36 -15 18 -17 29 -9 43 7 13 5 30 -6 57 -8 22 -15 55 -14 75 1 24 -6
43 -20 58 -12 13 -22 28 -22 34 0 5 -9 18 -19 27 -11 10 -23 31 -26 47 -4 16
-12 29 -19 29 -19 0 -67 51 -59 63 3 6 1 7 -5 3 -7 -4 -12 -2 -12 3 0 6 -5 11
-12 11 -13 0 -108 95 -108 108 0 15 -58 42 -90 42 -17 0 -38 6 -45 14 -12 11
-7 18 28 44 23 17 94 80 157 141 129 125 132 126 266 119 l85 -4 67 -74 c37
-40 77 -92 90 -114 35 -63 125 -142 206 -181 40 -19 81 -35 90 -35 55 0 366
-191 366 -225 0 -11 81 -116 117 -152 28 -28 113 -141 113 -150 0 -4 7 -21 15
-36 8 -16 17 -54 21 -85 3 -31 12 -70 19 -87 8 -16 17 -57 20 -90 7 -76 19
-112 65 -205 34 -67 54 -127 80 -240 5 -19 11 -118 15 -220 3 -102 8 -201 10
-220 3 -22 -5 -64 -21 -113 -23 -68 -35 -88 -88 -141 -42 -42 -85 -73 -136
-98 -72 -35 -74 -36 -45 -42 17 -4 58 -20 92 -36 123 -58 373 -105 643 -120
85 -5 229 -14 320 -20 134 -8 189 -8 295 4 72 8 175 18 230 21 313 19 565 65
685 125 41 21 102 58 135 82 33 24 73 50 89 58 57 29 124 107 182 215 102 190
122 253 109 347 -6 40 -15 57 -45 86 -21 19 -46 37 -55 38 -10 1 -24 13 -33
26 -9 13 -53 61 -98 108 -115 118 -150 158 -186 210 -58 84 -135 185 -157 204
-11 11 -21 25 -21 33 0 7 -3 13 -8 13 -4 0 -13 14 -20 30 -8 16 -20 30 -28 30
-9 0 -13 4 -9 10 8 13 -17 50 -35 50 -12 0 -12 2 -1 9 11 7 11 12 0 32 -7 13
-12 28 -11 32 1 5 -7 11 -20 15 -19 5 -20 6 -4 12 16 5 15 8 -6 35 -13 16 -22
31 -20 32 8 9 0 44 -13 57 -17 17 -20 30 -5 21 6 -3 10 -1 10 4 0 6 -7 11 -15
11 -8 0 -15 5 -15 10 0 6 3 10 8 10 4 0 5 22 4 50 -3 41 -7 50 -23 50 -10 0
-19 5 -19 10 0 6 7 10 16 8 14 -3 17 9 21 70 4 72 4 74 -18 67 -14 -5 -19 -4
-15 4 4 6 15 11 24 11 11 0 18 8 18 20 0 11 -6 20 -12 20 -7 0 -20 3 -30 7
-13 5 -16 3 -11 -10 8 -20 -11 -33 -26 -18 -6 6 -7 11 -1 11 5 0 10 11 10 25
1 16 -3 25 -13 25 -10 0 -12 -6 -8 -20 5 -16 2 -20 -16 -20 -18 0 -19 2 -9 15
11 13 7 15 -23 15 -28 0 -35 -3 -31 -15 4 -9 0 -15 -10 -15 -10 0 -13 6 -10
15 5 12 -4 15 -45 15 -45 0 -51 -2 -51 -21 0 -11 -4 -18 -10 -14 -5 3 -7 12
-4 20 5 12 -2 14 -32 13 -61 -2 -86 1 -80 11 3 4 21 7 41 5 25 -2 35 2 35 12
0 8 4 14 10 14 5 0 7 -7 4 -15 -4 -9 0 -15 9 -15 9 0 18 8 20 18 4 15 5 15 6
-1 0 -10 7 -17 14 -14 6 2 11 16 10 30 -1 15 2 27 7 27 10 0 14 -21 11 -47 -1
-7 3 -13 9 -13 5 0 10 10 10 22 0 12 3 18 8 14 4 -4 7 -13 7 -19 0 -7 6 -12
13 -11 6 1 21 2 31 3 15 1 19 7 16 28 -1 15 1 37 6 48 8 20 8 20 10 0 1 -11 1
-26 0 -32 -1 -7 3 -13 9 -13 5 0 10 7 10 15 0 8 5 15 10 15 10 0 14 -21 11
-47 -1 -7 4 -13 11 -13 7 0 14 11 14 25 1 14 -3 25 -8 25 -7 0 -6 5 1 13 6 8
8 17 4 20 -3 4 -1 7 5 7 7 0 12 -7 12 -15 0 -8 9 -15 20 -15 11 0 20 -7 20
-15 0 -8 5 -15 11 -15 6 0 9 7 5 15 -4 10 1 15 14 15 11 0 20 4 20 9 0 5 -16
9 -37 8 -31 -2 -36 1 -38 21 -1 12 4 22 12 22 7 0 12 -5 10 -12 -1 -6 10 -13
26 -14 15 -2 27 1 27 6 0 5 3 15 6 24 4 11 1 16 -11 16 -11 0 -15 -5 -11 -15
3 -9 0 -15 -9 -15 -9 0 -12 6 -9 15 5 13 -3 15 -46 14 -51 -2 -52 -3 -48 -31
3 -17 0 -28 -7 -28 -7 0 -11 18 -10 50 1 48 15 86 15 41 0 -20 4 -22 65 -20
47 1 65 6 65 15 0 8 5 14 11 14 6 0 9 -7 5 -15 -3 -8 -3 -15 0 -15 9 0 35 71
29 80 -4 6 -1 10 4 10 13 0 43 69 35 81 -3 5 -1 9 5 9 5 0 31 43 57 96 94 191
230 267 393 218 29 -8 58 -13 64 -11 8 2 12 46 13 139 2 159 2 158 123 362 44
75 84 149 87 163 8 30 67 110 103 138 14 11 33 27 41 35 18 18 112 60 134 60
9 0 16 4 16 8 0 5 12 9 28 10 15 0 41 6 57 13 42 18 52 18 212 20 154 1 155 2
148 64 -1 14 2 25 7 25 5 0 14 12 21 28 7 15 19 27 27 27 9 0 14 7 12 18 -2 9
2 17 8 17 5 0 10 -5 10 -11 0 -8 4 -8 14 0 8 6 18 11 22 10 22 -4 35 2 28 13
-4 6 -3 8 3 5 13 -8 94 19 103 34 9 14 -19 122 -34 134 -7 6 -11 16 -8 23 3
11 -9 13 -57 10 -33 -1 -61 0 -61 5 0 31 1 37 10 37 5 0 9 -5 7 -12 -1 -8 14
-13 46 -14 46 -1 56 7 39 32 -4 7 -53 11 -139 10 -131 -1 -133 -1 -133 -23 0
-13 5 -23 10 -23 6 0 10 7 10 15 0 8 5 15 10 15 6 0 10 -7 10 -15 0 -8 5 -15
10 -15 6 0 10 8 10 18 1 16 1 16 11 0 5 -10 14 -18 19 -18 5 0 11 8 13 18 4
16 5 16 6 0 1 -22 21 -24 21 -3 0 8 5 15 10 15 6 0 10 -9 10 -20 0 -13 -7 -20
-20 -20 -11 0 -20 -4 -20 -10 0 -5 10 -10 23 -10 16 0 23 -6 23 -20 0 -11 -6
-20 -13 -20 -7 0 -10 7 -7 15 4 10 0 15 -11 15 -11 0 -15 -5 -11 -15 3 -9 0
-15 -8 -15 -8 0 -11 10 -8 30 l4 30 -52 0 c-42 0 -51 -3 -46 -15 3 -9 0 -15
-9 -15 -9 0 -12 6 -9 15 4 8 1 15 -5 15 -6 0 -11 -7 -11 -15 0 -8 -5 -15 -11
-15 -6 0 -9 7 -5 15 4 12 -3 15 -29 15 -31 0 -34 -3 -31 -22 3 -22 21 -28 21
-8 0 6 3 10 8 10 4 0 7 -2 7 -5 0 -3 0 -12 0 -20 0 -8 -9 -15 -20 -15 -13 0
-18 -5 -14 -15 4 -8 1 -15 -5 -15 -12 0 -15 18 -12 63 2 17 -3 27 -12 27 -9 0
-12 -9 -9 -30 l4 -30 -71 0 c-42 0 -70 4 -66 9 3 5 0 13 -6 17 -8 5 -10 -3 -7
-25 4 -27 2 -31 -19 -31 -13 0 -22 -4 -18 -9 3 -5 1 -12 -5 -16 -6 -4 -10 5
-10 20 0 16 5 25 13 23 13 -3 17 3 17 27 0 8 -4 15 -10 15 -5 0 -7 -7 -4 -15
4 -10 0 -15 -11 -15 -11 0 -15 5 -12 14 5 12 -7 15 -59 15 -49 0 -64 -4 -64
-15 0 -8 -5 -14 -11 -14 -6 0 -9 7 -5 15 4 12 -3 15 -30 15 -28 0 -35 -3 -30
-15 3 -9 0 -15 -8 -15 -8 0 -13 11 -13 25 0 20 3 24 18 20 11 -4 19 -2 19 4 0
6 -9 11 -21 11 -15 0 -19 5 -15 15 4 11 -2 15 -24 15 -20 0 -30 -5 -30 -15 0
-8 -9 -15 -20 -15 -11 0 -20 -7 -20 -15 0 -9 -9 -15 -21 -15 -14 0 -19 -5 -16
-14 5 -12 -11 -15 -82 -15 -87 -1 -88 -1 -84 23 3 14 11 23 21 22 20 -1 23 35
3 42 -10 3 -12 0 -8 -12 4 -11 1 -16 -9 -16 -10 0 -14 6 -10 15 3 8 1 15 -4
15 -10 0 -14 -21 -11 -47 1 -7 -3 -13 -9 -13 -5 0 -9 6 -7 12 1 7 -8 14 -20
16 -13 2 -23 10 -23 18 0 8 -5 14 -11 14 -7 0 -10 -12 -7 -30 l5 -30 -54 0
c-30 0 -52 4 -49 8 2 4 23 7 45 5 37 -2 41 0 41 23 0 20 -5 24 -30 24 -20 0
-30 -5 -30 -15 0 -8 -5 -15 -11 -15 -6 0 -8 7 -5 16 5 13 2 15 -14 11 -11 -3
-23 -1 -26 4 -3 5 4 9 15 9 17 0 21 6 21 30 0 17 5 30 11 30 6 0 9 -12 7 -27
-2 -16 2 -28 11 -31 10 -3 12 0 8 12 -4 9 -2 16 4 16 6 0 8 3 6 8 -11 17 -16
82 -7 82 6 0 10 -6 10 -14 0 -8 5 -18 10 -21 6 -4 10 5 10 19 0 19 -5 26 -19
26 -13 0 -18 7 -18 25 0 14 3 25 8 25 5 0 9 -7 9 -15 0 -8 9 -15 20 -15 16 0
20 -7 20 -30 0 -16 4 -30 9 -30 5 0 8 30 6 67 -2 59 -5 68 -21 68 -11 0 -18 6
-17 13 2 7 -8 12 -28 12 -27 0 -30 -3 -27 -27 2 -14 -2 -28 -9 -30 -9 -3 -12
5 -9 26 3 27 0 31 -20 31 -17 0 -23 5 -21 18 3 18 22 29 22 12 0 -5 4 -9 10
-7 5 1 8 8 7 16 -2 7 2 11 10 8 7 -2 12 -10 11 -16 -2 -6 2 -11 7 -11 6 0 10
8 10 17 0 9 3 13 8 9 4 -4 7 -13 7 -19 0 -5 6 -12 13 -15 8 -2 11 6 10 30 -3
28 1 34 20 36 22 3 33 42 12 42 -5 0 -9 -5 -7 -12 1 -6 -6 -14 -17 -16 -16 -3
-18 1 -14 27 3 22 0 31 -9 31 -11 0 -13 -11 -9 -45 5 -37 3 -45 -10 -45 -10 0
-14 6 -10 15 3 9 0 15 -9 15 -9 0 -12 -6 -9 -15 4 -8 1 -15 -5 -15 -6 0 -11 7
-11 15 0 8 -7 15 -16 15 -14 0 -14 -3 -4 -15 10 -12 10 -15 -3 -15 -17 0 -27
31 -20 60 7 26 19 26 26 0 4 -15 10 -18 24 -13 39 14 44 43 7 43 -19 0 -25 4
-20 15 3 9 0 15 -9 15 -9 0 -12 -6 -9 -15 4 -9 0 -15 -10 -15 -11 0 -15 7 -12
23 2 16 9 21 23 19 18 -2 20 2 19 38 l-1 40 -47 -1 c-43 -2 -48 -5 -48 -26 0
-12 5 -23 11 -23 6 0 9 7 5 15 -3 9 0 15 9 15 8 0 15 -7 15 -15 0 -8 5 -15 10
-15 6 0 10 6 8 13 -2 6 1 12 7 12 5 0 10 -8 10 -17 1 -13 -6 -18 -23 -18 -17
0 -23 -4 -18 -15 3 -8 1 -15 -4 -15 -6 0 -10 7 -10 15 0 9 -6 15 -12 14 -32
-4 -37 1 -28 31 7 24 5 30 -6 30 -8 0 -14 -6 -13 -12 3 -28 -1 -61 -8 -54 -9
9 -10 106 -1 106 5 0 8 -7 8 -15 0 -8 5 -15 10 -15 6 0 10 7 10 15 0 8 5 15
10 15 6 0 10 -7 10 -15 0 -8 4 -15 9 -15 5 0 9 12 9 26 0 23 -4 25 -36 22 -30
-2 -36 0 -37 20 -1 12 2 22 7 22 4 0 8 -7 8 -15 0 -8 5 -15 10 -15 6 0 10 11
10 25 0 17 -5 25 -14 23 -8 -2 -15 2 -15 7 0 6 7 9 15 7 8 -2 14 2 14 7 0 5
-10 12 -22 14 -22 4 -22 4 -2 6 19 1 22 7 22 56 0 31 2 59 6 62 3 4 6 -1 6
-10 0 -12 9 -17 30 -17 23 0 30 5 30 19 0 11 -4 23 -10 26 -5 3 -10 -1 -10 -9
0 -9 -4 -16 -10 -16 -5 0 -9 5 -7 12 1 7 -6 12 -15 13 -10 0 -18 3 -18 8 0 4
0 13 0 20 0 8 16 13 46 13 35 2 44 -1 40 -12 -3 -8 0 -14 7 -14 7 0 13 9 13
20 0 17 -7 20 -53 20 -32 0 -53 4 -53 11 0 6 6 9 14 6 9 -4 14 2 14 18 0 14
-8 26 -17 28 -15 4 -15 5 0 6 25 2 22 51 -3 51 -10 0 -17 4 -13 10 3 5 12 7
19 4 10 -4 14 2 12 20 -1 18 -7 26 -18 26 -10 0 -18 4 -18 9 0 5 8 7 18 4 15
-3 18 1 16 19 -1 13 -3 31 -3 40 -1 9 -9 19 -18 21 -17 4 -17 5 0 6 10 1 17 9
17 21 0 10 -8 24 -17 29 -17 10 -17 10 0 11 11 0 17 8 17 24 0 15 -7 26 -17
29 -17 4 -17 5 0 6 25 2 22 40 -5 51 -23 9 -23 9 2 10 25 1 25 1 3 10 -28 12
-30 24 -3 17 28 -7 25 9 -2 18 l-23 7 25 7 c24 7 24 7 3 13 -24 6 -25 34 -2
49 11 7 11 9 -4 9 -10 0 -15 5 -12 10 4 6 11 8 16 5 5 -4 9 -2 9 4 0 5 -8 12
-17 14 -17 4 -17 5 0 6 9 0 17 5 17 10 0 5 -8 12 -17 14 -16 4 -16 5 -1 6 11
1 16 10 16 29 -2 109 3 152 17 152 21 0 19 18 -2 23 -16 4 -16 5 -1 6 13 1 16
9 13 41 -4 52 3 78 24 83 14 4 14 5 -1 6 -14 1 -18 10 -18 40 0 29 5 41 18 44
16 4 16 5 0 6 -10 0 -18 6 -18 11 0 6 8 10 18 11 15 0 14 1 -3 8 -19 8 -19 8
0 19 18 10 18 11 3 12 -10 0 -18 5 -18 10 0 6 7 10 15 10 8 0 15 9 15 20 0 11
-7 20 -15 20 -8 0 -15 5 -15 10 0 6 8 10 17 10 15 0 14 2 -3 16 -16 13 -16 15
-1 10 9 -3 17 -1 17 4 0 6 -6 10 -14 10 -7 0 -14 10 -14 23 0 12 -1 29 -3 37
-3 9 3 14 14 14 9 -1 17 2 17 7 0 5 -7 9 -15 9 -8 0 -15 7 -15 15 0 23 4 30
17 30 6 0 15 4 19 8 4 4 -2 7 -14 7 -17 0 -22 6 -22 25 0 17 4 23 15 19 11 -5
14 7 13 65 -1 65 -3 71 -20 66 -10 -4 -18 -2 -18 4 0 6 8 11 18 12 13 0 14 2
2 6 -8 4 -20 13 -27 22 -10 12 -12 13 -13 2 0 -10 -3 -11 -14 -2 -8 7 -29 13
-48 15 -18 1 -46 9 -63 18 -34 17 -105 31 -105 19 0 -4 16 -56 35 -116 20 -60
37 -123 39 -140 2 -16 9 -79 15 -140 7 -60 18 -153 25 -205 14 -96 14 -173 -2
-425 -9 -143 -7 -456 3 -578 5 -54 2 -80 -14 -127 -12 -33 -21 -67 -21 -76 0
-9 -6 -30 -14 -47 -42 -96 -68 -222 -65 -317 2 -65 -81 -253 -125 -282 -31
-21 -50 -34 -60 -43 -6 -6 -35 -21 -63 -34 -29 -14 -53 -28 -53 -33 0 -4 -7
-8 -15 -8 -9 0 -18 -7 -21 -15 -4 -8 -10 -12 -15 -9 -6 3 -15 1 -22 -4 -17
-14 -147 -53 -157 -47 -4 2 -22 0 -41 -6 -72 -21 -309 -43 -323 -29 -6 6 -17
10 -25 10 -9 0 -29 7 -45 15 -15 8 -36 15 -46 15 -10 0 -31 7 -46 15 -16 8
-37 15 -46 15 -9 0 -20 5 -23 10 -4 6 -11 8 -16 5 -5 -4 -22 3 -38 14 -16 12
-34 21 -41 21 -7 0 -25 7 -41 15 -16 8 -42 22 -58 30 -16 8 -36 15 -45 15 -9
0 -16 4 -16 9 0 5 -14 13 -32 16 -17 4 -37 13 -44 19 -6 6 -21 18 -33 26 -12
8 -41 40 -63 70 -23 30 -44 57 -47 60 -8 6 -36 64 -55 113 -8 20 -21 37 -28
37 -9 0 -10 3 -2 8 8 5 6 23 -7 62 -10 30 -19 65 -19 78 0 12 -3 22 -7 22 -5
0 -8 15 -9 33 -1 45 -13 158 -20 180 -3 9 -12 17 -20 17 -8 0 -14 5 -14 10 0
6 6 10 14 10 9 0 12 7 9 20 -3 11 -10 20 -15 20 -6 0 -8 6 -5 14 10 25 -16
196 -29 196 -9 0 -10 8 -4 30 5 17 6 30 2 30 -4 0 -8 17 -8 38 -4 81 -7 87
-50 85 -27 -1 -30 0 -11 4 20 3 27 9 23 19 -3 8 0 14 6 14 9 0 9 3 1 11 -6 6
-9 18 -6 25 3 8 -1 14 -8 14 -11 0 -11 2 -1 8 12 8 7 31 -20 100 -2 4 -6 6
-10 4 -5 -1 -8 2 -8 8 0 5 5 10 11 10 6 0 8 8 5 18 -3 9 -10 62 -15 118 -9
102 0 180 28 232 6 11 11 34 11 50 0 35 25 59 76 74 22 6 33 13 26 15 -19 7
24 41 70 55 25 7 45 22 56 40 9 15 22 28 29 28 7 0 13 6 13 13 0 8 11 19 24
26 13 7 29 23 35 35 21 41 35 60 89 119 12 14 22 30 22 35 0 6 6 15 13 19 22
14 37 52 37 93 0 35 4 42 39 64 22 14 46 35 55 47 9 13 18 20 22 16 4 -3 19 0
35 8 32 17 118 13 129 -6 8 -12 75 -19 75 -7 0 9 51 48 64 48 14 0 14 13 0 27
-9 9 0 17 34 34 26 13 42 26 36 30 -6 3 1 9 17 13 15 4 39 16 52 27 14 10 30
19 37 19 6 0 19 8 28 18 8 9 38 26 66 37 28 11 51 24 51 31 0 11 25 26 73 44
15 5 27 14 27 20 0 5 5 10 11 10 7 0 19 8 28 18 17 20 59 46 76 48 42 4 93 53
111 105 3 9 16 21 30 27 15 8 22 17 18 27 -4 9 1 17 12 22 11 3 32 17 47 30
16 13 35 23 43 23 18 0 37 14 78 60 99 109 156 153 224 175 13 4 32 15 42 25
17 17 18 19 1 34 -10 9 -25 16 -35 16 -10 0 -25 7 -34 16 -14 15 -37 16 -217
8 -391 -17 -486 -11 -730 52 -177 45 -296 85 -384 128 -48 23 -104 47 -126 53
-22 6 -67 23 -100 37 -85 35 -137 42 -155 21z m-5210 -7652 c0 -27 4 -64 8
-83 16 -73 -9 -109 -108 -157 -8 -4 -24 -17 -36 -30 -12 -13 -24 -23 -28 -23
-14 0 -5 38 14 55 11 10 20 24 20 30 0 7 7 18 15 25 18 15 20 91 4 107 -14 14
11 55 47 73 14 8 30 22 35 32 17 32 29 19 29 -29z m778 -3082 c17 -27 37 -73
45 -102 8 -30 31 -94 50 -144 33 -85 39 -128 12 -91 -7 9 -27 18 -44 19 -17 1
-31 6 -31 10 0 4 -6 7 -12 6 -44 -5 -46 -3 -54 114 -4 61 -7 124 -7 140 1 15
-4 27 -10 27 -7 0 -6 4 3 10 13 9 13 11 0 20 -10 6 -11 10 -2 10 6 0 12 7 12
15 0 24 6 18 38 -34z m996 -318 c20 -27 56 -78 81 -115 30 -44 70 -85 116
-118 119 -89 84 -103 -109 -44 -64 19 -252 71 -417 115 -389 104 -415 111
-415 120 0 7 21 4 75 -12 17 -4 66 -13 110 -19 129 -16 136 -17 215 -38 90
-24 165 -49 202 -68 37 -19 65 -17 99 7 21 14 29 29 29 50 0 30 -16 108 -31
147 -14 37 7 25 45 -25z m7704 -379 c8 -2 16 -5 19 -7 10 -10 -23 -47 -52 -59
-38 -15 -95 -60 -95 -74 0 -6 9 -19 20 -29 20 -18 26 -35 13 -35 -5 0 -23 13
-40 28 -26 21 -33 35 -33 63 0 34 0 35 -40 31 -43 -4 -46 -1 -30 28 8 15 16
17 33 11 46 -17 118 1 151 38 10 11 24 17 30 14 6 -4 17 -8 24 -9z"/>
<path d="M12783 8681 c-17 -5 -39 -16 -48 -25 -9 -9 -21 -16 -27 -16 -28 0 27
-337 74 -458 22 -54 25 -57 59 -58 20 -1 41 -4 47 -8 5 -3 45 1 89 10 43 9
108 22 145 30 58 12 70 11 97 -2 17 -9 31 -19 31 -22 0 -13 -175 -180 -195
-186 -11 -3 -30 -21 -42 -39 -13 -17 -32 -43 -43 -57 -15 -19 -18 -34 -14 -62
4 -21 11 -38 17 -38 6 0 41 -16 78 -35 115 -59 248 -87 429 -90 l155 -2 201
-66 c274 -89 284 -95 176 -117 -31 -7 -77 -21 -102 -32 -25 -11 -119 -40 -209
-64 -90 -24 -189 -56 -220 -70 -224 -104 -258 -128 -286 -200 -24 -64 -17
-156 19 -216 29 -49 32 -73 14 -85 -22 -14 -35 -47 -28 -68 16 -42 32 -47 118
-32 44 8 85 18 92 22 9 6 11 29 7 85 -5 76 -19 117 -60 172 -17 23 -19 36 -13
95 8 83 19 95 161 162 125 60 173 75 306 101 126 24 184 43 302 99 74 34 87
44 87 64 0 21 -11 29 -77 55 -43 16 -98 35 -123 42 -93 23 -237 73 -305 105
-91 43 -246 87 -370 104 -65 9 -157 44 -176 67 -16 19 8 45 82 93 55 36 245
227 268 270 7 12 33 31 57 42 33 14 45 24 42 36 -3 16 -18 18 -123 21 -66 2
-158 -1 -205 -7 -47 -6 -121 -13 -166 -17 l-81 -6 -26 109 c-17 70 -43 141
-74 203 -52 103 -62 110 -140 91z"/>
<path d="M8917 7153 c-20 -5 -16 -34 14 -97 11 -22 19 -40 19 -41 0 -1 -14 0
-30 3 -17 2 -37 -2 -46 -9 -14 -12 -13 -16 12 -36 25 -20 26 -22 6 -16 -12 3
-22 1 -22 -5 0 -7 -20 -9 -52 -7 -33 3 -55 0 -60 -7 -8 -14 -95 10 -160 43
-52 26 -48 9 7 -30 36 -26 45 -38 45 -62 0 -17 6 -32 15 -35 8 -4 15 -13 15
-21 0 -9 8 -23 18 -32 29 -26 54 -72 48 -87 -5 -14 7 -23 37 -28 8 -1 36 -23
63 -49 27 -26 61 -50 76 -54 15 -3 34 -16 42 -28 9 -13 30 -26 48 -30 18 -4
44 -17 58 -30 14 -12 35 -26 48 -30 12 -3 22 -11 22 -16 0 -5 7 -9 17 -9 14 0
96 -37 177 -82 17 -9 38 -15 47 -12 19 5 36 -9 78 -63 18 -24 38 -43 45 -43
23 0 44 34 48 75 3 37 1 41 -46 72 -56 36 -193 186 -202 221 -3 12 -9 22 -13
22 -4 0 -15 15 -25 33 -11 17 -30 41 -44 53 -22 18 -24 24 -15 50 5 16 8 35 6
42 -6 15 -30 16 -35 1 -5 -14 -63 74 -94 141 -17 36 -28 48 -51 53 -32 6 -53
48 -53 105 0 21 -7 35 -19 42 -11 5 -21 9 -23 9 -2 -1 -11 -3 -21 -6z"/>
<path d="M11385 6420 c-3 -5 -15 -10 -27 -10 -17 0 -18 -2 -8 -15 7 -9 19 -14
26 -11 19 7 40 -22 26 -36 -8 -8 -15 -8 -26 2 -9 7 -23 9 -32 6 -9 -4 -23 -1
-31 5 -10 9 -17 9 -24 2 -8 -8 -23 -5 -52 11 -28 15 -41 18 -44 9 -3 -8 -15
-10 -34 -6 -16 3 -35 0 -43 -6 -7 -6 -20 -9 -28 -6 -8 3 -31 -6 -51 -19 -20
-14 -37 -21 -37 -15 0 6 -12 1 -26 -10 -15 -12 -33 -21 -41 -21 -11 0 -13 -7
-9 -26 6 -21 4 -25 -7 -21 -9 3 -20 -5 -28 -20 -7 -13 -21 -29 -30 -34 -13 -7
-16 -18 -12 -49 5 -38 -9 -57 -20 -27 -3 7 -8 5 -13 -8 -4 -11 -15 -25 -23
-32 -14 -11 -14 -12 1 -13 30 0 30 -20 -2 -46 -24 -21 -28 -29 -19 -40 9 -11
8 -14 -5 -14 -26 0 -37 -41 -17 -64 12 -14 13 -20 4 -23 -8 -3 -11 -14 -7 -29
3 -13 1 -30 -5 -38 -6 -7 -10 -24 -8 -37 2 -13 1 -36 -4 -51 -8 -28 11 -56 29
-44 5 3 9 -8 8 -24 -1 -16 -7 -32 -13 -35 -7 -2 -13 -15 -13 -28 0 -13 -9 -32
-19 -41 -16 -15 -18 -22 -8 -36 9 -15 7 -23 -8 -40 -16 -18 -17 -23 -5 -31 12
-8 12 -12 2 -16 -6 -2 -10 -9 -7 -13 7 -12 -25 -92 -42 -107 -30 -24 -111
-137 -106 -147 4 -5 -1 -7 -10 -3 -12 4 -17 1 -18 -11 -4 -97 -4 -239 1 -233
5 9 50 -21 50 -33 0 -3 -9 -6 -20 -6 -29 0 -25 -18 5 -26 20 -5 23 -9 15 -19
-9 -11 11 -13 112 -10 l122 4 27 32 c18 23 35 32 57 33 20 1 30 5 28 12 -3 7
8 14 24 18 20 4 38 18 55 46 14 22 36 45 49 50 25 9 66 55 66 74 1 16 32 51
53 59 11 4 21 16 24 26 3 11 23 32 44 47 21 15 39 33 39 41 0 8 5 11 10 8 6
-3 14 5 20 19 5 14 14 26 18 26 12 0 112 97 112 109 0 5 11 12 25 15 13 3 29
15 35 26 6 11 20 30 33 44 36 39 47 55 47 65 0 6 14 26 30 44 17 19 30 39 30
45 0 5 6 15 14 21 22 19 65 114 85 188 12 44 17 92 15 137 -3 75 -29 169 -50
187 -8 6 -14 16 -14 21 0 6 -13 23 -30 38 -16 15 -30 26 -30 22 0 -3 -9 3 -20
13 -28 25 -25 39 4 20 26 -17 36 -10 32 21 -2 11 -12 20 -26 22 -16 3 -20 0
-15 -9 5 -8 4 -10 -3 -5 -7 4 -12 13 -12 20 0 7 -18 22 -40 34 -30 16 -47 19
-64 12 -13 -5 -27 -5 -32 0 -16 14 -52 21 -59 10z"/>
<path d="M12031 4906 c-6 -7 -9 -20 -6 -28 3 -7 -6 -29 -20 -48 -14 -19 -25
-35 -25 -37 0 -2 16 -3 35 -1 19 1 40 -3 46 -9 17 -17 0 -62 -26 -69 -28 -7
-65 11 -65 32 0 13 -12 15 -67 11 -61 -4 -69 -7 -95 -38 -30 -36 -35 -58 -17
-76 9 -9 16 -6 30 10 21 26 36 16 40 -28 4 -54 0 -65 -23 -65 -38 0 -52 -14
-39 -38 18 -34 14 -73 -9 -79 -11 -3 -20 -8 -20 -12 0 -12 60 -32 78 -27 12 4
29 -3 47 -20 17 -15 35 -24 47 -21 11 3 22 -2 29 -15 6 -11 30 -29 54 -39 51
-22 83 -70 60 -89 -20 -17 -63 15 -67 48 -4 35 -38 36 -54 3 -7 -13 -20 -28
-28 -33 -13 -7 -16 -4 -16 15 0 32 -34 73 -65 79 -22 5 -25 2 -25 -22 0 -18 8
-33 25 -44 30 -20 33 -46 5 -46 -11 0 -20 5 -20 10 0 15 -15 12 -39 -7 -21
-17 -21 -20 -7 -62 9 -24 13 -53 10 -65 -7 -30 18 -52 36 -31 18 22 70 20 70
-3 0 -19 18 -42 32 -42 4 0 8 6 8 13 0 8 8 21 18 30 16 15 21 15 46 1 16 -8
37 -12 47 -9 42 14 88 -72 57 -103 -22 -22 4 -31 55 -19 32 8 47 17 47 28 0
23 -27 86 -41 94 -7 5 -3 15 11 30 19 21 20 24 5 39 -9 9 -26 16 -38 16 -16 0
-18 3 -9 12 21 21 14 57 -13 70 -13 6 -26 18 -28 27 -5 23 21 71 38 71 8 0 15
6 15 14 0 7 7 19 15 26 8 7 15 23 15 36 0 20 -5 24 -31 24 -44 0 -36 34 9 38
24 2 32 8 30 20 -2 9 7 21 18 27 73 37 73 74 -1 151 -30 32 -55 61 -55 65 0
11 85 79 98 79 18 0 25 20 12 35 -7 8 -20 15 -28 15 -9 0 -28 12 -43 26 -40
38 -146 57 -168 30z"/>
<path d="M13661 4074 c-16 -12 -21 -22 -17 -40 5 -20 2 -23 -31 -26 -30 -2
-38 -7 -38 -23 0 -16 9 -21 42 -26 49 -6 44 -1 64 -59 9 -25 22 -45 30 -45 20
0 30 71 13 93 -16 20 -18 58 -4 67 16 10 12 40 -8 58 -23 21 -22 21 -51 1z"/>
<path d="M13022 3978 c-7 -7 -12 -17 -12 -23 0 -7 -11 -17 -25 -23 -14 -6 -25
-16 -25 -22 0 -16 -28 -11 -38 7 -9 15 -13 15 -54 0 -54 -21 -72 -21 -88 -2
-18 22 -32 18 -20 -5 6 -12 8 -30 5 -40 -4 -11 1 -34 9 -52 18 -35 20 -58 6
-58 -24 0 -78 34 -96 61 -20 31 -93 65 -119 56 -19 -8 -19 -37 -1 -74 8 -15
17 -36 21 -46 4 -16 14 -18 58 -17 72 3 70 4 105 -30 34 -32 61 -39 63 -15 1
8 2 21 3 28 0 6 16 16 34 22 33 9 44 25 17 25 -8 0 -15 9 -15 20 0 11 5 20 10
20 6 0 10 -7 10 -15 0 -8 6 -15 13 -15 19 0 57 43 57 63 0 9 7 17 16 17 9 0
27 9 41 20 l26 20 17 -28 c10 -16 29 -38 43 -49 l25 -19 -47 -13 c-96 -26
-101 -41 -24 -77 32 -15 58 -27 58 -25 0 1 13 -3 29 -9 24 -9 37 -7 74 10 34
17 42 24 31 31 -8 5 -24 9 -36 9 -18 0 -23 6 -23 28 0 15 -5 33 -11 39 -13 13
-21 111 -9 118 5 3 11 1 15 -5 3 -5 20 -10 36 -10 17 0 40 -5 51 -11 22 -12
22 -9 -6 36 -17 28 -26 32 -100 42 -45 6 -88 14 -96 17 -9 4 -21 1 -28 -6z"/>
<path d="M9529 2471 c-35 -34 -39 -44 -39 -88 0 -77 22 -92 145 -98 104 -5
145 7 145 41 0 29 30 74 50 74 11 0 20 3 20 8 0 12 -50 62 -63 63 -61 3 -114
12 -138 24 -47 25 -78 19 -120 -24z"/>
<path d="M8857 2152 c-31 -31 -57 -65 -57 -74 0 -10 -14 -21 -34 -28 -18 -6
-42 -20 -52 -31 -15 -17 -16 -22 -3 -34 21 -21 91 -26 112 -7 9 8 17 11 17 5
0 -5 20 -10 45 -10 49 0 49 0 35 26 -15 29 14 61 53 58 21 -1 31 2 30 10 -2 7
6 17 17 23 26 14 26 40 0 40 -11 0 -20 -7 -20 -15 0 -18 -9 -19 -32 -2 -9 8
-18 31 -20 52 -2 26 -8 41 -18 43 -8 1 -41 -24 -73 -56z"/>
</g>
</svg>
